<?xml version="1.0" encoding="iso-8859-1"?>
<!-- Generator: Adobe Illustrator 19.0.0, SVG Export Plug-In . SVG Version: 6.00 Build 0)  -->
<svg version="1.1" id="Layer_1" xmlns="http://www.w3.org/2000/svg" xmlns:xlink="http://www.w3.org/1999/xlink" x="0px" y="0px"
	 viewBox="0 0 511.999 511.999" style="enable-background:new 0 0 511.999 511.999;" xml:space="preserve">
<path style="fill:#CF8F3D;" d="M327.248,8.659c28.194,0,51.05,22.856,51.05,51.05c0,28.194-22.856,51.05-51.05,51.05
	c-28.194,0-51.048-22.855-51.048-51.05C276.201,31.515,299.055,8.659,327.248,8.659L327.248,8.659z"/>
<g>
	<path style="fill:#FF4328;" d="M276.059,60.037c0-28.375,22.917-51.379,51.19-51.379s51.193,23.004,51.193,51.379H276.059z"/>
	<path style="fill:#FF4328;" d="M392.619,178.809v142.559H261.878V178.809c0,0-13.717-10.872,40.709-10.872l0,0
		c17.014,0,32.979,0,49.324,0l0,0C406.34,167.937,392.619,178.809,392.619,178.809z"/>
</g>
<polygon style="fill:#234848;" points="327.55,321.37 261.878,321.37 261.878,452.715 327.55,452.715 393.22,452.715 393.22,321.37 
	"/>
<polygon style="fill:#5B7F81;" points="327.55,321.37 393.22,321.37 393.22,452.715 327.55,452.715 "/>
<polygon style="fill:#967342;" points="205.562,342.066 113.608,342.066 113.608,471.969 205.562,471.969 "/>
<path d="M327.248,119.417c29.921,0,54.767-22.124,59.051-50.87h32.667c4.782,0,8.659-3.877,8.659-8.659s-3.877-8.659-8.659-8.659
	h-32.621C382.215,22.309,357.293,0,327.248,0c-32.922,0-59.706,26.785-59.706,59.708S294.326,119.417,327.248,119.417z
	 M327.248,17.317c20.472,0,37.6,14.588,41.54,33.912h-71.54c-4.782,0-8.659,3.877-8.659,8.659s3.877,8.659,8.659,8.659h71.46
	c-4.078,19.145-21.114,33.553-41.458,33.553c-23.374,0-42.389-19.016-42.389-42.391S303.875,17.317,327.248,17.317z M496.076,338.81
	l-37.18-91.641c-17.222-42.431-44.945-91.137-106.986-91.137h-49.323c-62.034,0-89.76,48.706-106.984,91.138l-34.987,86.237h-47.01
	c-4.783,0-8.659,3.877-8.659,8.659v129.904c0,4.782,3.876,8.659,8.659,8.659h91.954c4.782,0,8.659-3.877,8.659-8.659V342.066
	c0-4.782-3.877-8.659-8.659-8.659h-26.257l32.345-79.725c12.159-29.954,25.547-50.771,41.57-63.697V321.37v131.344
	c0,4.782,3.877,8.659,8.659,8.659h23.855v33.307h-27.804c-4.783,0-8.659,3.877-8.659,8.659s3.876,8.659,8.659,8.659h36.421
	c0.014,0,0.028,0.002,0.042,0.002c4.782,0,8.659-3.877,8.659-8.659v-41.968h24.499h23.898v41.968c0,4.782,3.877,8.659,8.659,8.659
	c0.014,0,0.028-0.002,0.042-0.002h36.42c4.782,0,8.659-3.877,8.659-8.659s-3.877-8.659-8.659-8.659h-27.803v-33.307h24.455
	c4.782,0,8.659-3.877,8.659-8.659V321.37c0-1.112-0.218-2.171-0.6-3.148V189.982c16.025,12.925,29.413,33.742,41.571,63.699
	l37.18,91.64c1.366,3.365,4.605,5.405,8.026,5.405c1.083,0,2.186-0.206,3.252-0.637C495.739,348.291,497.874,343.242,496.076,338.81
	z M196.903,463.311h-74.637V350.724h44.285c0.011,0,0.022,0,0.032,0h30.32v112.586H196.903z M270.537,330.028h48.355v114.027
	h-48.355V330.028z M384.56,444.055h-48.353V330.028h48.353V444.055z M383.962,312.711H327.55h-57.013V179.5
	c9.704-4.157,20.311-6.151,32.051-6.151h49.322c11.74,0,22.347,1.993,32.051,6.149v133.213H383.962z M75.132,359.971
	c0,4.782-3.876,8.659-8.659,8.659h-42.53c-4.783,0-8.659-3.877-8.659-8.659c0-4.782,3.876-8.659,8.659-8.659h42.53
	C71.256,351.312,75.132,355.189,75.132,359.971z M75.132,407.018c0,4.782-3.876,8.659-8.659,8.659H54.128
	c-4.783,0-8.659-3.877-8.659-8.659s3.876-8.659,8.659-8.659h12.346C71.256,398.359,75.132,402.236,75.132,407.018z M75.132,454.062
	c0,4.782-3.876,8.659-8.659,8.659h-3.416c-4.782,0-8.659-3.877-8.659-8.659s3.877-8.659,8.659-8.659h3.416
	C71.256,445.404,75.132,449.281,75.132,454.062z"/>
<g>
</g>
<g>
</g>
<g>
</g>
<g>
</g>
<g>
</g>
<g>
</g>
<g>
</g>
<g>
</g>
<g>
</g>
<g>
</g>
<g>
</g>
<g>
</g>
<g>
</g>
<g>
</g>
<g>
</g>
</svg>
