<?xml version="1.0" encoding="iso-8859-1"?>
<!-- Generator: Adobe Illustrator 19.0.0, SVG Export Plug-In . SVG Version: 6.00 Build 0)  -->
<svg version="1.1" id="Capa_1" xmlns="http://www.w3.org/2000/svg" xmlns:xlink="http://www.w3.org/1999/xlink" x="0px" y="0px"
	 viewBox="0 0 79.694 79.694" style="enable-background:new 0 0 79.694 79.694;" xml:space="preserve">
<g>
	<path d="M68.013,11.67C60.488,4.144,50.482,0,39.838,0s-20.65,4.145-28.176,11.671c-15.537,15.536-15.537,40.815,0,56.351
		c7.525,7.526,17.532,11.672,28.175,11.672c10.645,0,20.65-4.146,28.176-11.673c7.526-7.524,11.672-17.53,11.672-28.175
		C79.683,29.202,75.538,19.196,68.013,11.67z M65.791,61.558l-11.308-11.31c4.414-6.209,4.414-14.596,0-20.807l11.31-11.31
		C76.282,30.656,76.282,49.035,65.791,61.558z M27.854,39.846c0-3.201,1.247-6.21,3.51-8.473c2.264-2.263,5.273-3.51,8.474-3.51
		s6.21,1.247,8.474,3.51c4.672,4.672,4.672,12.274,0,16.948c-2.264,2.264-5.271,3.51-8.473,3.51c-3.201,0-6.21-1.246-8.474-3.51
		C29.1,46.056,27.854,43.046,27.854,39.846z M61.553,13.888l-11.31,11.309c-3.021-2.156-6.619-3.334-10.406-3.334
		c-3.786,0-7.385,1.178-10.406,3.334L18.123,13.889c6.08-5.104,13.682-7.89,21.715-7.89S55.474,8.785,61.553,13.888z M13.882,18.134
		L25.188,29.44c-2.156,3.021-3.334,6.619-3.334,10.406c0,3.788,1.178,7.385,3.334,10.407L13.882,61.559
		C3.391,49.035,3.391,30.657,13.882,18.134z M18.122,65.803l11.309-11.309c3.021,2.155,6.62,3.334,10.407,3.334
		s7.386-1.179,10.405-3.334l11.31,11.309c-6.079,5.104-13.683,7.891-21.716,7.891C31.803,73.694,24.201,70.909,18.122,65.803z"/>
</g>
</svg>
