<svg width="1440" height="164" viewBox="0 0 1440 164" fill="none" xmlns="http://www.w3.org/2000/svg">
    <path d="M0 0L48 10.7C96 21 192 43 288 64C384 85 480 107 576 101.3C672 96 768 64 864 42.7C960 21 1056 11 1152 16C1248 21 1344 43 1392 53.3L1440 64V164H1392C1344 164 1248 164 1152 164C1056 164 960 164 864 164C768 164 672 164 576 164C480 164 384 164 288 164C192 164 96 164 48 164H0V0Z" fill="#F3F4F5" fill-opacity="0.6" />
    <path d="M0 13L48 23.7C96 34 192 56 288 77C384 98 480 120 576 114.3C672 109 768 77 864 55.7C960 34 1056 24 1152 29C1248 34 1344 56 1392 66.3L1440 77V164H1392C1344 164 1248 164 1152 164C1056 164 960 164 864 164C768 164 672 164 576 164C480 164 384 164 288 164C192 164 96 164 48 164H0V13Z" fill="white" />
</svg>