<svg width="1440" height="169" viewBox="0 0 1440 169" fill="none" xmlns="http://www.w3.org/2000/svg">
    <path d="M1440 10.0001L1392 20.7001C1344 31.0001 1248 53.0001 1152 74.0001C1056 95.0001 1021 117 925 111.3C829 106 717 50.0001 621 28.7001C525 7.00009 429 -2.99991 333 2.00009C237 7.00009 96 53.0001 48 63.3001L0 74.0001V169H48C96 169 237 169 333 169C429 169 525 169 621 169C717 169 829 169 925 169C1021 169 1056 169 1152 169C1248 169 1344 169 1392 169H1440V10.0001Z" fill="#F3F4F5" fill-opacity="0.6" />
    <path d="M1440 18.0001L1392 28.7001C1344 39.0001 1248 61.0001 1152 82.0001C1056 103 1021 125 925 119.3C829 114 717 58.0001 621 36.7001C525 15.0001 429 5.00009 333 10.0001C237 15.0001 96 61.0001 48 71.3001L0 82.0001V169H48C96 169 237 169 333 169C429 169 525 169 621 169C717 169 829 169 925 169C1021 169 1056 169 1152 169C1248 169 1344 169 1392 169H1440V18.0001Z" fill="#F6F6F6" fill-opacity="0.7" />
</svg>